
<svg version="1.1" id="Capa_1" xmlns="http://www.w3.org/2000/svg" xmlns:xlink="http://www.w3.org/1999/xlink" x="0px" y="0px"
	 viewBox="0 0 200 60" style="enable-background:new 0 0 200 60;" xml:space="preserve">
<style type="text/css">
	.st0{fill:#bb0f29;}
</style>
<g>
	<path class="st0" d="M71.69,32.19c1.4-3.3,2.8-6.36,4-9.49c0.68-1.78,2.24-1.37,3.34-1.11c0.69,0.17,1.53,1.48,1.48,2.23
		c-0.1,1.39-0.74,2.77-1.25,4.12c-0.93,2.45-2.03,4.86-2.87,7.34c-0.58,1.71-1.67,2.25-3.49,2.24c-7.99-0.05-15.97-0.02-24.1-0.02
		c-0.24,0.68-0.48,1.33-0.82,2.28c1.13,0,2.06,0,2.99,0c7.51,0,15.02,0.02,22.53-0.02c1.97-0.01,3.23,0.61,3.31,2.59
		c0.07,1.85-1.03,2.75-3.36,2.74c-9.91,0-19.81-0.01-29.72-0.02c-2.13,0-3.65-1.53-2.67-3.21c2.14-3.69,0.95-6.85-0.48-10.42
		c-5.37-13.48-0.3-0.61-5.49-14.15c-0.53-1.38-1.38-2.41-3.27-2.06c-0.77,0.14-1.6,0.08-2.39,0.01c-1.83-0.16-2.87-1.13-2.88-2.86
		c-0.01-1.73,1.02-2.78,2.86-2.87c2.23-0.11,4.5-0.2,6.7,0.06c0.96,0.12,2.2,0.97,2.6,1.78c1.23,2.49,2.14,5.12,3.14,7.7
		c4.96,12.77-0.22-0.91,4.79,11.84c0.22,0.55,1.16,1.21,1.78,1.22C56.17,32.22,63.92,32.19,71.69,32.19z"/>
	<path class="st0" d="M17.89,17.9c3.74,0,7.49-0.02,11.23,0.01c2.36,0.02,3.56,1.05,3.53,2.93c-0.03,1.86-1.23,2.84-3.62,2.85
		c-7.49,0.02-14.98,0.02-22.47,0c-2.13,0-4.1-1.47-4.06-2.93c0.04-1.48,1.99-2.84,4.15-2.85C10.4,17.89,14.14,17.9,17.89,17.9z"/>
	<path class="st0" d="M22.67,31.38c-3.34,0-6.69-0.09-10.03,0.04c-2.13,0.08-2.88-1.15-2.99-2.64c-0.11-1.59,1.09-2.61,2.8-2.62
		c6.85-0.06,13.7-0.06,20.54-0.01c1.85,0.01,3.05,1.08,2.87,2.78c-0.16,1.53-1.07,2.6-3.16,2.49
		C29.37,31.26,26.02,31.38,22.67,31.38z"/>
	<path class="st0" d="M67.56,46.95c3.5,0.02,5.41,1.89,5.39,5.3c-0.01,2.99-2.24,5.04-5.58,4.9c-3.64-0.15-5.22-2.18-5.35-5.44
		C61.92,48.95,64.41,46.93,67.56,46.95z M68.75,52.89c0.85-0.93,0.09-2.39-1.21-2.32c-0.01,0-0.01,0-0.02,0c-0.01,0-0.01,0-0.02,0
		c-1.51,0.11-1.97,2.07-0.63,2.73c0.27,0.13,0.55,0.19,0.81,0.17C68.17,53.44,68.45,53.21,68.75,52.89z"/>
	<path class="st0" d="M31.07,34.47c1.67,0,3.35,0.09,5.01-0.02c2.14-0.14,2.92,1.2,2.91,2.68c-0.01,1.5-0.85,2.7-2.97,2.63
		c-3.42-0.12-6.84-0.04-10.26-0.03c-1.93,0.01-2.93-0.88-2.92-2.66c0.01-1.8,1.06-2.64,2.98-2.61
		C27.57,34.49,29.32,34.47,31.07,34.47z"/>
</g>
<path class="st0" d="M51.02,47.29c3.5,0.02,5.41,1.89,5.39,5.3c-0.01,2.99-2.24,5.04-5.58,4.9c-3.64-0.15-5.22-2.18-5.35-5.44
	C45.37,49.3,47.87,47.28,51.02,47.29z M52.2,53.23c0.85-0.93,0.09-2.39-1.21-2.32c-0.01,0-0.01,0-0.02,0c-0.01,0-0.01,0-0.02,0
	c-1.51,0.11-1.97,2.07-0.63,2.73c0.27,0.13,0.55,0.19,0.81,0.17C51.62,53.78,51.91,53.55,52.2,53.23z"/>
<g>
	<path class="st0" d="M69.33,5.75v13.87c0,1.2-0.07,2.23-0.2,3.07c-0.13,0.84-0.43,1.7-0.9,2.56c-0.78,1.46-2.07,2.59-3.87,3.4
		c-1.8,0.81-3.98,1.22-6.56,1.22c-2.33,0-4.27-0.28-5.82-0.85c-1.56-0.57-2.81-1.48-3.76-2.74c-0.5-0.67-0.91-1.45-1.22-2.33
		c-0.31-0.88-0.47-1.72-0.47-2.51c0-0.84,0.3-1.49,0.91-1.93c0.61-0.45,1.39-0.67,2.34-0.67c0.92,0,1.62,0.2,2.09,0.61
		c0.47,0.41,0.83,1.05,1.08,1.91c0.27,0.93,0.53,1.67,0.8,2.22c0.27,0.55,0.71,1.03,1.34,1.43c0.62,0.4,1.52,0.6,2.67,0.6
		c3.08,0,4.62-1.74,4.62-5.22V5.75c0-1.08,0.31-1.9,0.93-2.44c0.62-0.54,1.46-0.81,2.52-0.81c1.08,0,1.93,0.27,2.57,0.81
		C69.02,3.85,69.33,4.67,69.33,5.75z"/>
</g>
<g>
	<path class="st0" d="M109.18,39.24c0,1.6-0.54,3.04-1.61,4.32c-1.07,1.28-2.64,2.28-4.7,3c-2.06,0.72-4.51,1.08-7.34,1.08
		c-3.39,0-6.19-0.49-8.39-1.48c-1.56-0.71-2.83-1.66-3.81-2.84c-0.98-1.19-1.47-2.34-1.47-3.46c0-0.65,0.29-1.21,0.88-1.67
		c0.59-0.46,1.33-0.7,2.24-0.7c0.73,0,1.36,0.18,1.86,0.54c0.51,0.36,0.94,0.9,1.3,1.61c0.44,0.84,0.91,1.55,1.42,2.11
		c0.51,0.57,1.22,1.03,2.14,1.4c0.92,0.37,2.13,0.55,3.63,0.55c2.06,0,3.74-0.37,5.03-1.11c1.29-0.74,1.93-1.66,1.93-2.77
		c0-0.88-0.35-1.59-1.04-2.14c-0.7-0.55-1.59-0.97-2.7-1.26c-1.1-0.29-2.57-0.6-4.42-0.92c-2.47-0.45-4.54-0.97-6.2-1.56
		c-1.66-0.6-2.98-1.41-3.96-2.44c-0.98-1.03-1.47-2.31-1.47-3.84c0-1.46,0.52-2.75,1.55-3.88c1.03-1.13,2.52-2,4.48-2.61
		c1.95-0.61,4.25-0.91,6.89-0.91c2.11,0,3.93,0.2,5.47,0.6c1.54,0.4,2.82,0.94,3.83,1.61c1.02,0.67,1.76,1.37,2.23,2.1
		s0.7,1.45,0.7,2.15c0,0.64-0.29,1.21-0.88,1.72c-0.59,0.51-1.32,0.77-2.19,0.77c-0.8,0-1.4-0.15-1.82-0.46
		c-0.41-0.31-0.86-0.81-1.35-1.51c-0.63-1-1.38-1.78-2.25-2.34c-0.88-0.56-2.28-0.84-4.22-0.84c-1.8,0-3.25,0.3-4.35,0.91
		c-1.1,0.61-1.65,1.34-1.65,2.19c0,0.53,0.19,0.99,0.56,1.37c0.38,0.39,0.89,0.72,1.55,0.99c0.66,0.28,1.32,0.49,1.99,0.65
		c0.67,0.16,1.78,0.39,3.33,0.69c1.94,0.35,3.69,0.73,5.26,1.16c1.57,0.42,2.91,0.93,4.01,1.53c1.1,0.6,1.96,1.36,2.58,2.28
		C108.87,36.78,109.18,37.91,109.18,39.24z"/>
	<path class="st0" d="M120.9,23.26v7.31c0.81-0.72,1.61-1.29,2.38-1.72c0.77-0.42,1.63-0.74,2.57-0.95
		c0.94-0.21,1.95-0.32,3.02-0.32c1.62,0,3.07,0.26,4.32,0.79c1.26,0.53,2.25,1.3,2.97,2.31c0.45,0.59,0.76,1.25,0.91,1.98
		c0.16,0.73,0.23,1.57,0.23,2.52v9.44c0,0.99-0.29,1.73-0.88,2.24c-0.59,0.51-1.36,0.76-2.33,0.76c-2.11,0-3.16-1-3.16-3v-8.32
		c0-1.58-0.3-2.79-0.91-3.64c-0.61-0.85-1.77-1.27-3.47-1.27c-1.14,0-2.17,0.25-3.08,0.75c-0.91,0.5-1.6,1.18-2.05,2.05
		c-0.34,0.73-0.52,2.04-0.52,3.92v6.52c0,0.97-0.29,1.72-0.86,2.23c-0.57,0.51-1.36,0.77-2.38,0.77c-2.11,0-3.16-1-3.16-3V23.26
		c0-1,0.28-1.75,0.83-2.25c0.55-0.5,1.33-0.75,2.33-0.75c1.02,0,1.81,0.25,2.38,0.76C120.61,21.53,120.9,22.28,120.9,23.26z"/>
	<path class="st0" d="M167.59,37.62c0,1.47-0.3,2.82-0.89,4.06c-0.59,1.24-1.45,2.31-2.58,3.2c-1.12,0.89-2.47,1.57-4.03,2.05
		c-1.56,0.48-3.32,0.71-5.27,0.71c-1.94,0-3.68-0.24-5.23-0.72c-1.55-0.48-2.89-1.17-4.02-2.07c-1.13-0.9-1.99-1.96-2.58-3.18
		c-0.59-1.22-0.88-2.57-0.88-4.05c0-1.49,0.3-2.86,0.89-4.1c0.59-1.24,1.45-2.3,2.55-3.18c1.11-0.88,2.45-1.56,4.03-2.03
		c1.58-0.48,3.32-0.71,5.23-0.71c1.94,0,3.7,0.24,5.27,0.72c1.58,0.48,2.93,1.17,4.06,2.06s1.98,1.95,2.57,3.18
		C167.3,34.78,167.59,36.14,167.59,37.62z M161.17,37.62c0-2.01-0.58-3.58-1.72-4.7c-1.15-1.12-2.69-1.68-4.63-1.68
		c-1.25,0-2.35,0.25-3.31,0.75c-0.95,0.5-1.69,1.24-2.2,2.21c-0.52,0.98-0.77,2.11-0.77,3.41c0,1.29,0.25,2.41,0.76,3.38
		c0.51,0.96,1.23,1.7,2.18,2.21c0.94,0.51,2.06,0.77,3.34,0.77c1.94,0,3.48-0.56,4.63-1.69C160.59,41.16,161.17,39.61,161.17,37.62z
		"/>
	<path class="st0" d="M178.54,30.36v0.6c1.2-1.14,2.45-1.98,3.75-2.52c1.3-0.54,2.77-0.8,4.41-0.8c1.97,0,3.78,0.39,5.44,1.17
		c1.66,0.78,2.97,1.93,3.93,3.43c0.96,1.51,1.44,3.29,1.44,5.34c0,1.52-0.28,2.91-0.83,4.18c-0.55,1.27-1.32,2.34-2.29,3.2
		c-0.97,0.86-2.11,1.52-3.43,1.99c-1.32,0.46-2.74,0.7-4.25,0.7c-1.83,0-3.36-0.28-4.61-0.85c-1.24-0.57-2.43-1.4-3.55-2.49v7.4
		c0,2.17-1.02,3.25-3.07,3.25c-1.2,0-2-0.28-2.39-0.84c-0.39-0.56-0.59-1.38-0.59-2.45V30.4c0-0.94,0.27-1.64,0.8-2.1
		c0.53-0.46,1.26-0.7,2.18-0.7c0.91,0,1.64,0.24,2.22,0.71C178.25,28.79,178.54,29.47,178.54,30.36z M191.08,37.53
		c0-1.3-0.26-2.42-0.77-3.35c-0.52-0.93-1.23-1.65-2.14-2.15c-0.91-0.5-1.93-0.75-3.04-0.75c-1.77,0-3.25,0.54-4.47,1.61
		c-1.21,1.07-1.82,2.65-1.82,4.73c0,1.96,0.6,3.49,1.8,4.58c1.2,1.09,2.7,1.63,4.48,1.63c1.06,0,2.05-0.24,2.95-0.71
		c0.91-0.48,1.63-1.19,2.18-2.14C190.8,40.03,191.08,38.88,191.08,37.53z"/>
</g>
</svg>
