
<svg version="1.1" id="Capa_1" xmlns="http://www.w3.org/2000/svg" xmlns:xlink="http://www.w3.org/1999/xlink" x="0px" y="0px"
	 viewBox="25 0 60 60" style="enable-background:new 0 0 200 60;" xml:space="preserve">
<style type="text/css">
	.st0{fill:#bb0f29;}
</style>
<g>
	<path class="st0" d="M71.69,32.19c1.4-3.3,2.8-6.36,4-9.49c0.68-1.78,2.24-1.37,3.34-1.11c0.69,0.17,1.53,1.48,1.48,2.23
		c-0.1,1.39-0.74,2.77-1.25,4.12c-0.93,2.45-2.03,4.86-2.87,7.34c-0.58,1.71-1.67,2.25-3.49,2.24c-7.99-0.05-15.97-0.02-24.1-0.02
		c-0.24,0.68-0.48,1.33-0.82,2.28c1.13,0,2.06,0,2.99,0c7.51,0,15.02,0.02,22.53-0.02c1.97-0.01,3.23,0.61,3.31,2.59
		c0.07,1.85-1.03,2.75-3.36,2.74c-9.91,0-19.81-0.01-29.72-0.02c-2.13,0-3.65-1.53-2.67-3.21c2.14-3.69,0.95-6.85-0.48-10.42
		c-5.37-13.48-0.3-0.61-5.49-14.15c-0.53-1.38-1.38-2.41-3.27-2.06c-0.77,0.14-1.6,0.08-2.39,0.01c-1.83-0.16-2.87-1.13-2.88-2.86
		c-0.01-1.73,1.02-2.78,2.86-2.87c2.23-0.11,4.5-0.2,6.7,0.06c0.96,0.12,2.2,0.97,2.6,1.78c1.23,2.49,2.14,5.12,3.14,7.7
		c4.96,12.77-0.22-0.91,4.79,11.84c0.22,0.55,1.16,1.21,1.78,1.22C56.17,32.22,63.92,32.19,71.69,32.19z"/>
	<path class="st0" d="M67.56,46.95c3.5,0.02,5.41,1.89,5.39,5.3c-0.01,2.99-2.24,5.04-5.58,4.9c-3.64-0.15-5.22-2.18-5.35-5.44
		C61.92,48.95,64.41,46.93,67.56,46.95z M68.75,52.89c0.85-0.93,0.09-2.39-1.21-2.32c-0.01,0-0.01,0-0.02,0c-0.01,0-0.01,0-0.02,0
		c-1.51,0.11-1.97,2.07-0.63,2.73c0.27,0.13,0.55,0.19,0.81,0.17C68.17,53.44,68.45,53.21,68.75,52.89z"/>
</g>
<path class="st0" d="M51.02,47.29c3.5,0.02,5.41,1.89,5.39,5.3c-0.01,2.99-2.24,5.04-5.58,4.9c-3.64-0.15-5.22-2.18-5.35-5.44
	C45.37,49.3,47.87,47.28,51.02,47.29z M52.2,53.23c0.85-0.93,0.09-2.39-1.21-2.32c-0.01,0-0.01,0-0.02,0c-0.01,0-0.01,0-0.02,0
	c-1.51,0.11-1.97,2.07-0.63,2.73c0.27,0.13,0.55,0.19,0.81,0.17C51.62,53.78,51.91,53.55,52.2,53.23z"/>
<g>
	<path class="st0" d="M69.33,5.75v13.87c0,1.2-0.07,2.23-0.2,3.07c-0.13,0.84-0.43,1.7-0.9,2.56c-0.78,1.46-2.07,2.59-3.87,3.4
		c-1.8,0.81-3.98,1.22-6.56,1.22c-2.33,0-4.27-0.28-5.82-0.85c-1.56-0.57-2.81-1.48-3.76-2.74c-0.5-0.67-0.91-1.45-1.22-2.33
		c-0.31-0.88-0.47-1.72-0.47-2.51c0-0.84,0.3-1.49,0.91-1.93c0.61-0.45,1.39-0.67,2.34-0.67c0.92,0,1.62,0.2,2.09,0.61
		c0.47,0.41,0.83,1.05,1.08,1.91c0.27,0.93,0.53,1.67,0.8,2.22c0.27,0.55,0.71,1.03,1.34,1.43c0.62,0.4,1.52,0.6,2.67,0.6
		c3.08,0,4.62-1.74,4.62-5.22V5.75c0-1.08,0.31-1.9,0.93-2.44c0.62-0.54,1.46-0.81,2.52-0.81c1.08,0,1.93,0.27,2.57,0.81
		C69.02,3.85,69.33,4.67,69.33,5.75z"/>
</g>
</svg>
